<svg width="18" height="19" viewBox="0 0 18 19" fill="none" xmlns="http://www.w3.org/2000/svg">
<path fill-rule="evenodd" clip-rule="evenodd" d="M14.5385 7.03977C14.8482 7.06527 15.0792 7.33602 15.0544 7.64577C15.0499 7.69677 14.6435 12.73 14.4095 14.8413C14.264 16.1515 13.3984 16.9488 12.0919 16.9728C11.0922 16.99 10.1277 16.9998 9.18495 16.9998C8.1687 16.9998 7.17795 16.9885 6.1977 16.9683C4.9437 16.9435 4.07595 16.1305 3.9342 14.8465C3.69795 12.7165 3.2937 7.69602 3.28995 7.64577C3.26445 7.33602 3.49545 7.06453 3.8052 7.03977C4.11045 7.03152 4.38645 7.24603 4.4112 7.55503C4.41359 7.58758 4.57886 9.6378 4.75895 11.6663L4.79512 12.0711C4.88582 13.0794 4.97777 14.0483 5.05245 14.7228C5.1327 15.4525 5.52645 15.829 6.22095 15.8433C8.09595 15.883 10.0092 15.8853 12.0717 15.8478C12.8097 15.8335 13.2087 15.4645 13.2912 14.7175C13.5237 12.622 13.9287 7.60603 13.9332 7.55503C13.9579 7.24603 14.2317 7.03003 14.5385 7.03977ZM10.7591 2C11.4475 2 12.0528 2.46425 12.2305 3.1295L12.4211 4.07525C12.4826 4.38528 12.7547 4.61169 13.0697 4.61667L15.531 4.61675C15.8415 4.61675 16.0935 4.86875 16.0935 5.17925C16.0935 5.48975 15.8415 5.74175 15.531 5.74175L13.0917 5.74164C13.0879 5.74171 13.0841 5.74175 13.0803 5.74175L13.062 5.741L5.28121 5.74166C5.27517 5.74172 5.26911 5.74175 5.26305 5.74175L5.2515 5.741L2.8125 5.74175C2.502 5.74175 2.25 5.48975 2.25 5.17925C2.25 4.86875 2.502 4.61675 2.8125 4.61675L5.27325 4.616L5.34902 4.6112C5.63123 4.57459 5.86578 4.36025 5.92305 4.07525L6.1053 3.16325C6.29055 2.46425 6.8958 2 7.5843 2H10.7591ZM10.7591 3.125H7.5843C7.4043 3.125 7.24605 3.24575 7.2003 3.419L7.02555 4.2965C7.00334 4.40765 6.971 4.51476 6.92961 4.61695H11.414C11.3725 4.51476 11.3401 4.40765 11.3178 4.2965L11.1355 3.3845C11.0973 3.24575 10.939 3.125 10.7591 3.125Z" fill="white"/>
</svg>
