<svg width="103" height="25" viewBox="0 0 103 25" fill="none" xmlns="http://www.w3.org/2000/svg">
<path d="M3 21.5H21M13.7844 5.81171C13.7844 5.81171 13.7844 7.44634 15.419 9.08096C17.0537 10.7156 18.6883 10.7156 18.6883 10.7156M7.31963 18.4881L10.7523 17.9977C11.2475 17.9269 11.7064 17.6975 12.06 17.3438L20.3229 9.08096C21.2257 8.17818 21.2257 6.71449 20.3229 5.81171L18.6883 4.17708C17.7855 3.27431 16.3218 3.27431 15.419 4.17708L7.15616 12.44C6.80248 12.7936 6.57305 13.2525 6.50231 13.7477L6.01193 17.1804C5.90295 17.9432 6.5568 18.597 7.31963 18.4881Z" stroke="#00AFFF" stroke-width="1.5" stroke-linecap="round"/>
<path d="M31.6283 18V7.81818H37.7732V8.91193H32.8612V12.3523H37.455V13.446H32.8612V16.9062H37.8527V18H31.6283ZM42.5799 18.1591C41.9435 18.1591 41.3817 17.9983 40.8945 17.6768C40.4073 17.352 40.0261 16.8946 39.7511 16.3047C39.476 15.7114 39.3384 15.0104 39.3384 14.2017C39.3384 13.3996 39.476 12.7036 39.7511 12.1136C40.0261 11.5237 40.409 11.0679 40.8995 10.7464C41.39 10.425 41.9568 10.2642 42.5998 10.2642C43.0969 10.2642 43.4897 10.3471 43.778 10.5128C44.0697 10.6752 44.2918 10.8608 44.4442 11.0696C44.6 11.2751 44.721 11.4441 44.8072 11.5767H44.9066V7.81818H46.0799V18H44.9464V16.8267H44.8072C44.721 16.9659 44.5984 17.1416 44.4393 17.3537C44.2802 17.5625 44.0531 17.7498 43.7582 17.9155C43.4632 18.0779 43.0704 18.1591 42.5799 18.1591ZM42.739 17.1051C43.2096 17.1051 43.6073 16.9825 43.9322 16.7372C44.257 16.4886 44.5039 16.1456 44.6729 15.7081C44.842 15.2673 44.9265 14.7585 44.9265 14.1818C44.9265 13.6117 44.8436 13.1129 44.6779 12.6854C44.5122 12.2545 44.2669 11.9197 43.9421 11.6811C43.6173 11.4392 43.2163 11.3182 42.739 11.3182C42.2418 11.3182 41.8275 11.4458 41.4961 11.701C41.168 11.9529 40.921 12.2959 40.7553 12.7301C40.5929 13.161 40.5117 13.6449 40.5117 14.1818C40.5117 14.7254 40.5946 15.2192 40.7603 15.6634C40.9293 16.1042 41.1779 16.4555 41.506 16.7173C41.8375 16.9759 42.2484 17.1051 42.739 17.1051ZM48.2517 18V10.3636H49.425V18H48.2517ZM48.8483 9.09091C48.6196 9.09091 48.4224 9.01302 48.2566 8.85724C48.0942 8.70147 48.013 8.5142 48.013 8.29545C48.013 8.0767 48.0942 7.88944 48.2566 7.73366C48.4224 7.57789 48.6196 7.5 48.8483 7.5C49.077 7.5 49.2725 7.57789 49.4349 7.73366C49.6006 7.88944 49.6835 8.0767 49.6835 8.29545C49.6835 8.5142 49.6006 8.70147 49.4349 8.85724C49.2725 9.01302 49.077 9.09091 48.8483 9.09091ZM54.755 10.3636V11.358H50.7976V10.3636H54.755ZM51.951 8.53409H53.1243V15.8125C53.1243 16.1439 53.1723 16.3925 53.2685 16.5582C53.3679 16.7206 53.4938 16.83 53.6463 16.8864C53.8021 16.9394 53.9661 16.9659 54.1385 16.9659C54.2677 16.9659 54.3738 16.9593 54.4567 16.946C54.5395 16.9295 54.6058 16.9162 54.6555 16.9062L54.8942 17.9602C54.8146 17.9901 54.7036 18.0199 54.5611 18.0497C54.4186 18.0829 54.2379 18.0994 54.0192 18.0994C53.6877 18.0994 53.3629 18.0282 53.0447 17.8857C52.7299 17.7431 52.468 17.526 52.2592 17.2344C52.0537 16.9427 51.951 16.5748 51.951 16.1307V8.53409ZM60.3365 18V7.81818H61.5694V16.9062H66.3024V18H60.3365ZM67.9124 18V10.3636H69.0857V18H67.9124ZM68.509 9.09091C68.2803 9.09091 68.0831 9.01302 67.9174 8.85724C67.7549 8.70147 67.6737 8.5142 67.6737 8.29545C67.6737 8.0767 67.7549 7.88944 67.9174 7.73366C68.0831 7.57789 68.2803 7.5 68.509 7.5C68.7377 7.5 68.9332 7.57789 69.0956 7.73366C69.2613 7.88944 69.3442 8.0767 69.3442 8.29545C69.3442 8.5142 69.2613 8.70147 69.0956 8.85724C68.9332 9.01302 68.7377 9.09091 68.509 9.09091ZM72.2679 13.4062V18H71.0946V10.3636H72.2282V11.5568H72.3276C72.5066 11.169 72.7784 10.8575 73.1429 10.6222C73.5075 10.3835 73.9782 10.2642 74.5549 10.2642C75.0719 10.2642 75.5243 10.3703 75.9121 10.5824C76.2999 10.7912 76.6015 11.1094 76.8169 11.5369C77.0324 11.9612 77.1401 12.4981 77.1401 13.1477V18H75.9668V13.2273C75.9668 12.6274 75.811 12.16 75.4995 11.8253C75.1879 11.4872 74.7604 11.3182 74.2168 11.3182C73.8423 11.3182 73.5075 11.3994 73.2125 11.5618C72.9209 11.7242 72.6905 11.9612 72.5215 12.2727C72.3525 12.5843 72.2679 12.9621 72.2679 13.4062ZM82.3458 18.1591C81.61 18.1591 80.9753 17.9967 80.4417 17.6719C79.9114 17.3438 79.5021 16.8864 79.2137 16.2997C78.9287 15.7098 78.7861 15.0237 78.7861 14.2415C78.7861 13.4593 78.9287 12.7699 79.2137 12.1733C79.5021 11.5734 79.9031 11.1061 80.4168 10.7713C80.9339 10.4332 81.5371 10.2642 82.2265 10.2642C82.6242 10.2642 83.017 10.3305 83.4048 10.4631C83.7925 10.5956 84.1455 10.8111 84.4637 11.1094C84.7819 11.4044 85.0354 11.7955 85.2244 12.2827C85.4133 12.7699 85.5077 13.3698 85.5077 14.0824V14.5795H79.6214V13.5653H84.3146C84.3146 13.1345 84.2284 12.75 84.056 12.4119C83.887 12.0739 83.645 11.8071 83.3302 11.6115C83.0186 11.416 82.6507 11.3182 82.2265 11.3182C81.7592 11.3182 81.3548 11.4342 81.0134 11.6662C80.6753 11.8949 80.4152 12.1932 80.2329 12.5611C80.0506 12.929 79.9594 13.3234 79.9594 13.7443V14.4205C79.9594 14.9972 80.0589 15.486 80.2577 15.8871C80.4599 16.2848 80.74 16.5881 81.0979 16.7969C81.4559 17.0024 81.8718 17.1051 82.3458 17.1051C82.654 17.1051 82.9325 17.062 83.181 16.9759C83.4329 16.8864 83.65 16.7538 83.8323 16.5781C84.0146 16.3991 84.1555 16.1771 84.2549 15.9119L85.3884 16.2301C85.2691 16.6146 85.0686 16.9527 84.7869 17.2443C84.5051 17.5327 84.1571 17.758 83.7428 17.9205C83.3285 18.0795 82.8629 18.1591 82.3458 18.1591ZM91.965 14.8778V10.3636H93.1383V18H91.965V16.7074H91.8855C91.7065 17.0952 91.4281 17.425 91.0503 17.6967C90.6724 17.9652 90.1952 18.0994 89.6184 18.0994C89.1412 18.0994 88.7169 17.995 88.3457 17.7862C87.9745 17.5741 87.6828 17.2559 87.4707 16.8317C87.2586 16.4041 87.1525 15.8655 87.1525 15.2159V10.3636H88.3258V15.1364C88.3258 15.6932 88.4816 16.1373 88.7932 16.4688C89.108 16.8002 89.5091 16.9659 89.9963 16.9659C90.288 16.9659 90.5846 16.8913 90.8862 16.7422C91.1911 16.593 91.4463 16.3643 91.6518 16.0561C91.8606 15.7479 91.965 15.3551 91.965 14.8778ZM95.1473 20.8636V10.3636H96.2808V11.5767H96.42C96.5062 11.4441 96.6255 11.2751 96.778 11.0696C96.9338 10.8608 97.1558 10.6752 97.4442 10.5128C97.7358 10.3471 98.1303 10.2642 98.6274 10.2642C99.2704 10.2642 99.8372 10.425 100.328 10.7464C100.818 11.0679 101.201 11.5237 101.476 12.1136C101.751 12.7036 101.889 13.3996 101.889 14.2017C101.889 15.0104 101.751 15.7114 101.476 16.3047C101.201 16.8946 100.82 17.352 100.333 17.6768C99.8455 17.9983 99.2837 18.1591 98.6473 18.1591C98.1568 18.1591 97.764 18.0779 97.469 17.9155C97.1741 17.7498 96.947 17.5625 96.7879 17.3537C96.6288 17.1416 96.5062 16.9659 96.42 16.8267H96.3206V20.8636H95.1473ZM96.3007 14.1818C96.3007 14.7585 96.3852 15.2673 96.5543 15.7081C96.7233 16.1456 96.9702 16.4886 97.295 16.7372C97.6198 16.9825 98.0176 17.1051 98.4882 17.1051C98.9787 17.1051 99.3881 16.9759 99.7162 16.7173C100.048 16.4555 100.296 16.1042 100.462 15.6634C100.631 15.2192 100.715 14.7254 100.715 14.1818C100.715 13.6449 100.633 13.161 100.467 12.7301C100.305 12.2959 100.058 11.9529 99.7261 11.701C99.398 11.4458 98.9854 11.3182 98.4882 11.3182C98.0109 11.3182 97.6099 11.4392 97.2851 11.6811C96.9603 11.9197 96.715 12.2545 96.5493 12.6854C96.3836 13.1129 96.3007 13.6117 96.3007 14.1818Z" fill="#00AFFF"/>
</svg>
