<svg width="18" height="19" viewBox="0 0 18 19" fill="none" xmlns="http://www.w3.org/2000/svg">
<path d="M2.25 16.25H15.75M10.3383 4.48378C10.3383 4.48378 10.3383 5.70975 11.5643 6.93572C12.7902 8.16169 14.0162 8.16169 14.0162 8.16169M5.48972 13.9911L8.06425 13.6233C8.43562 13.5702 8.77977 13.3981 9.04503 13.1329L15.2422 6.93572C15.9193 6.25864 15.9193 5.16087 15.2422 4.48378L14.0162 3.25781C13.3391 2.58073 12.2414 2.58073 11.5643 3.25781L5.36712 9.45497C5.10186 9.72023 4.92979 10.0644 4.87674 10.4357L4.50894 13.0103C4.42721 13.5824 4.9176 14.0728 5.48972 13.9911Z" stroke="black" stroke-linecap="round"/>
</svg>
