<svg width="102" height="19" viewBox="0 0 102 19" fill="none" xmlns="http://www.w3.org/2000/svg">
<path d="M15 17H13.5V15.5C13.5 14.2573 12.4927 13.25 11.25 13.25H6.75C5.50736 13.25 4.5 14.2573 4.5 15.5V17H3V15.5C3 13.429 4.67894 11.75 6.75 11.75H11.25C13.321 11.75 15 13.429 15 15.5V17ZM9 10.25C6.51472 10.25 4.5 8.23527 4.5 5.75C4.5 3.26472 6.51472 1.25 9 1.25C11.4853 1.25 13.5 3.26472 13.5 5.75C13.5 8.23527 11.4853 10.25 9 10.25ZM9 8.75C10.6568 8.75 12 7.40686 12 5.75C12 4.09314 10.6568 2.75 9 2.75C7.34314 2.75 6 4.09314 6 5.75C6 7.40686 7.34314 8.75 9 8.75Z" fill="#00AFFF"/>
<path d="M25.6006 15V4.81818H29.041C29.8397 4.81818 30.4927 4.96236 30.9998 5.25071C31.5102 5.53575 31.888 5.92188 32.1333 6.40909C32.3785 6.89631 32.5012 7.43987 32.5012 8.03977C32.5012 8.63968 32.3785 9.1849 32.1333 9.67543C31.8913 10.166 31.5168 10.5571 31.0097 10.8487C30.5026 11.1371 29.853 11.2812 29.0608 11.2812H26.5949V10.1875H29.0211C29.5679 10.1875 30.0071 10.093 30.3385 9.90412C30.67 9.7152 30.9103 9.45999 31.0594 9.13849C31.2119 8.81368 31.2881 8.44744 31.2881 8.03977C31.2881 7.6321 31.2119 7.26752 31.0594 6.94602C30.9103 6.62453 30.6683 6.37263 30.3336 6.19034C29.9988 6.00473 29.5547 5.91193 29.0012 5.91193H26.8336V15H25.6006ZM35.3615 4.81818V15H34.1882V4.81818H35.3615ZM39.6177 15.179C39.1338 15.179 38.6946 15.0878 38.3002 14.9055C37.9058 14.7199 37.5926 14.4531 37.3606 14.1051C37.1286 13.7538 37.0126 13.3295 37.0126 12.8324C37.0126 12.3949 37.0987 12.0402 37.2711 11.7685C37.4434 11.4934 37.6738 11.2779 37.9621 11.1222C38.2505 10.9664 38.5687 10.8504 38.9167 10.7741C39.268 10.6946 39.621 10.6316 39.9756 10.5852C40.4396 10.5256 40.8158 10.4808 41.1042 10.451C41.3958 10.4179 41.608 10.3632 41.7405 10.2869C41.8764 10.2107 41.9444 10.0781 41.9444 9.8892V9.84943C41.9444 9.3589 41.8101 8.97775 41.5417 8.70597C41.2765 8.43419 40.8738 8.2983 40.3336 8.2983C39.7734 8.2983 39.3343 8.42093 39.0161 8.66619C38.6979 8.91146 38.4742 9.1733 38.3449 9.4517L37.2313 9.05398C37.4302 8.58996 37.6953 8.22869 38.0268 7.97017C38.3615 7.70833 38.7261 7.52604 39.1205 7.4233C39.5182 7.31723 39.9093 7.2642 40.2938 7.2642C40.5391 7.2642 40.8208 7.29403 41.139 7.35369C41.4605 7.41004 41.7704 7.5277 42.0687 7.70668C42.3703 7.88565 42.6205 8.15578 42.8194 8.51705C43.0182 8.87831 43.1177 9.36222 43.1177 9.96875V15H41.9444V13.9659H41.8847C41.8052 14.1316 41.6726 14.3089 41.487 14.4979C41.3014 14.6868 41.0545 14.8475 40.7462 14.9801C40.438 15.1127 40.0618 15.179 39.6177 15.179ZM39.7966 14.125C40.2607 14.125 40.6518 14.0339 40.9699 13.8516C41.2914 13.6693 41.5334 13.4339 41.6958 13.1456C41.8615 12.8572 41.9444 12.554 41.9444 12.2358V11.1619C41.8947 11.2216 41.7853 11.2763 41.6162 11.326C41.4505 11.3724 41.2583 11.4138 41.0395 11.4503C40.8241 11.4834 40.6136 11.5133 40.4081 11.5398C40.206 11.563 40.0419 11.5829 39.916 11.5994C39.611 11.6392 39.326 11.7038 39.0608 11.7933C38.799 11.8795 38.5869 12.0104 38.4245 12.1861C38.2654 12.3584 38.1858 12.5937 38.1858 12.892C38.1858 13.2997 38.3367 13.608 38.6383 13.8168C38.9432 14.0223 39.3293 14.125 39.7966 14.125ZM45.6014 17.8636C45.4026 17.8636 45.2252 17.8471 45.0695 17.8139C44.9137 17.7841 44.806 17.7543 44.7463 17.7244L45.0446 16.6903C45.3296 16.7633 45.5815 16.7898 45.8003 16.7699C46.019 16.75 46.2129 16.6522 46.382 16.4766C46.5543 16.3042 46.7117 16.0241 46.8543 15.6364L47.073 15.0398L44.2491 7.36364H45.5219L47.6298 13.4489H47.7094L49.8173 7.36364H51.0901L47.8486 16.1136C47.7027 16.508 47.5221 16.8345 47.3067 17.093C47.0912 17.3549 46.841 17.5488 46.556 17.6747C46.2742 17.8007 45.9561 17.8636 45.6014 17.8636ZM55.427 15.1591C54.6912 15.1591 54.0565 14.9967 53.5229 14.6719C52.9926 14.3438 52.5832 13.8864 52.2949 13.2997C52.0098 12.7098 51.8673 12.0237 51.8673 11.2415C51.8673 10.4593 52.0098 9.76989 52.2949 9.1733C52.5832 8.57339 52.9843 8.10606 53.498 7.77131C54.015 7.43324 54.6183 7.2642 55.3077 7.2642C55.7054 7.2642 56.0981 7.33049 56.4859 7.46307C56.8737 7.59564 57.2267 7.81108 57.5449 8.10938C57.8631 8.40436 58.1166 8.79545 58.3055 9.28267C58.4944 9.76989 58.5889 10.3698 58.5889 11.0824V11.5795H52.7025V10.5653H57.3957C57.3957 10.1345 57.3096 9.75 57.1372 9.41193C56.9682 9.07386 56.7262 8.80705 56.4114 8.61151C56.0998 8.41596 55.7319 8.31818 55.3077 8.31818C54.8403 8.31818 54.436 8.43419 54.0946 8.66619C53.7565 8.89489 53.4963 9.19318 53.314 9.56108C53.1318 9.92898 53.0406 10.3234 53.0406 10.7443V11.4205C53.0406 11.9972 53.14 12.486 53.3389 12.8871C53.5411 13.2848 53.8212 13.5881 54.1791 13.7969C54.5371 14.0024 54.953 14.1051 55.427 14.1051C55.7352 14.1051 56.0136 14.062 56.2622 13.9759C56.5141 13.8864 56.7312 13.7538 56.9135 13.5781C57.0958 13.3991 57.2366 13.1771 57.3361 12.9119L58.4696 13.2301C58.3503 13.6146 58.1498 13.9527 57.868 14.2443C57.5863 14.5327 57.2383 14.758 56.824 14.9205C56.4097 15.0795 55.944 15.1591 55.427 15.1591ZM60.2337 15V7.36364H61.3672V8.51705H61.4468C61.586 8.1392 61.8379 7.83262 62.2025 7.5973C62.567 7.36198 62.978 7.24432 63.4354 7.24432C63.5216 7.24432 63.6293 7.24597 63.7586 7.24929C63.8878 7.2526 63.9856 7.25758 64.0519 7.2642V8.45739C64.0121 8.44744 63.921 8.43253 63.7785 8.41264C63.6392 8.38944 63.4918 8.37784 63.336 8.37784C62.9648 8.37784 62.6333 8.45573 62.3417 8.61151C62.0533 8.76397 61.8246 8.97609 61.6556 9.24787C61.4899 9.51634 61.407 9.82292 61.407 10.1676V15H60.2337ZM74.8275 7.36364C74.7678 6.85985 74.5259 6.46875 74.1016 6.19034C73.6774 5.91193 73.157 5.77273 72.5405 5.77273C72.0898 5.77273 71.6954 5.84564 71.3573 5.99148C71.0225 6.13731 70.7607 6.33783 70.5718 6.59304C70.3862 6.84825 70.2934 7.13826 70.2934 7.46307C70.2934 7.73485 70.358 7.96851 70.4873 8.16406C70.6198 8.3563 70.7889 8.51705 70.9944 8.64631C71.1999 8.77225 71.4153 8.87666 71.6407 8.95952C71.8661 9.03906 72.0732 9.10369 72.2621 9.15341L73.2962 9.43182C73.5614 9.50142 73.8563 9.59754 74.1812 9.72017C74.5093 9.8428 74.8225 10.0102 75.1208 10.2223C75.4224 10.4311 75.671 10.6996 75.8665 11.0277C76.0621 11.3558 76.1599 11.7585 76.1599 12.2358C76.1599 12.786 76.0157 13.2831 75.7273 13.7273C75.4423 14.1714 75.0247 14.5244 74.4745 14.7862C73.9276 15.0481 73.2631 15.179 72.4809 15.179C71.7517 15.179 71.1203 15.0613 70.5867 14.826C70.0564 14.5907 69.6388 14.2625 69.3339 13.8416C69.0322 13.4207 68.8616 12.9318 68.8218 12.375H70.0945C70.1277 12.7595 70.2569 13.0777 70.4823 13.3295C70.711 13.5781 70.9993 13.7637 71.3474 13.8864C71.6987 14.0057 72.0765 14.0653 72.4809 14.0653C72.9515 14.0653 73.3741 13.9891 73.7486 13.8366C74.1232 13.6809 74.4198 13.4654 74.6385 13.1903C74.8573 12.9119 74.9667 12.5871 74.9667 12.2159C74.9667 11.8778 74.8722 11.6027 74.6833 11.3906C74.4944 11.1785 74.2458 11.0062 73.9376 10.8736C73.6293 10.741 73.2962 10.625 72.9383 10.5256L71.6854 10.1676C70.89 9.93892 70.2602 9.61245 69.7962 9.18821C69.3322 8.76397 69.1002 8.20881 69.1002 7.52273C69.1002 6.95265 69.2543 6.45549 69.5626 6.03125C69.8741 5.60369 70.2917 5.27225 70.8154 5.03693C71.3424 4.7983 71.9307 4.67898 72.5803 4.67898C73.2366 4.67898 73.8199 4.79664 74.3303 5.03196C74.8407 5.26397 75.2451 5.58215 75.5434 5.98651C75.845 6.39086 76.0041 6.8499 76.0206 7.36364H74.8275ZM81.209 7.36364V8.35795H77.2516V7.36364H81.209ZM78.405 5.53409H79.5783V12.8125C79.5783 13.1439 79.6263 13.3925 79.7224 13.5582C79.8219 13.7206 79.9478 13.83 80.1003 13.8864C80.2561 13.9394 80.4201 13.9659 80.5925 13.9659C80.7217 13.9659 80.8278 13.9593 80.9107 13.946C80.9935 13.9295 81.0598 13.9162 81.1095 13.9062L81.3482 14.9602C81.2686 14.9901 81.1576 15.0199 81.0151 15.0497C80.8725 15.0829 80.6919 15.0994 80.4732 15.0994C80.1417 15.0994 79.8169 15.0282 79.4987 14.8857C79.1839 14.7431 78.922 14.526 78.7132 14.2344C78.5077 13.9427 78.405 13.5748 78.405 13.1307V5.53409ZM85.081 15.179C84.5971 15.179 84.158 15.0878 83.7636 14.9055C83.3691 14.7199 83.0559 14.4531 82.8239 14.1051C82.5919 13.7538 82.4759 13.3295 82.4759 12.8324C82.4759 12.3949 82.5621 12.0402 82.7344 11.7685C82.9068 11.4934 83.1371 11.2779 83.4255 11.1222C83.7138 10.9664 84.032 10.8504 84.38 10.7741C84.7314 10.6946 85.0843 10.6316 85.439 10.5852C85.903 10.5256 86.2792 10.4808 86.5675 10.451C86.8592 10.4179 87.0713 10.3632 87.2039 10.2869C87.3398 10.2107 87.4077 10.0781 87.4077 9.8892V9.84943C87.4077 9.3589 87.2735 8.97775 87.005 8.70597C86.7399 8.43419 86.3372 8.2983 85.7969 8.2983C85.2368 8.2983 84.7976 8.42093 84.4795 8.66619C84.1613 8.91146 83.9376 9.1733 83.8083 9.4517L82.6947 9.05398C82.8935 8.58996 83.1587 8.22869 83.4901 7.97017C83.8249 7.70833 84.1895 7.52604 84.5839 7.4233C84.9816 7.31723 85.3727 7.2642 85.7572 7.2642C86.0024 7.2642 86.2841 7.29403 86.6023 7.35369C86.9238 7.41004 87.2337 7.5277 87.532 7.70668C87.8336 7.88565 88.0839 8.15578 88.2827 8.51705C88.4816 8.87831 88.581 9.36222 88.581 9.96875V15H87.4077V13.9659H87.3481C87.2685 14.1316 87.1359 14.3089 86.9503 14.4979C86.7647 14.6868 86.5178 14.8475 86.2096 14.9801C85.9013 15.1127 85.5252 15.179 85.081 15.179ZM85.26 14.125C85.724 14.125 86.1151 14.0339 86.4333 13.8516C86.7548 13.6693 86.9967 13.4339 87.1591 13.1456C87.3249 12.8572 87.4077 12.554 87.4077 12.2358V11.1619C87.358 11.2216 87.2486 11.2763 87.0796 11.326C86.9139 11.3724 86.7216 11.4138 86.5029 11.4503C86.2875 11.4834 86.077 11.5133 85.8715 11.5398C85.6693 11.563 85.5053 11.5829 85.3793 11.5994C85.0744 11.6392 84.7894 11.7038 84.5242 11.7933C84.2624 11.8795 84.0502 12.0104 83.8878 12.1861C83.7288 12.3584 83.6492 12.5937 83.6492 12.892C83.6492 13.2997 83.8 13.608 84.1016 13.8168C84.4065 14.0223 84.7927 14.125 85.26 14.125ZM93.9036 7.36364V8.35795H89.9462V7.36364H93.9036ZM91.0996 5.53409H92.2729V12.8125C92.2729 13.1439 92.3209 13.3925 92.417 13.5582C92.5165 13.7206 92.6424 13.83 92.7949 13.8864C92.9507 13.9394 93.1147 13.9659 93.2871 13.9659C93.4163 13.9659 93.5224 13.9593 93.6053 13.946C93.6881 13.9295 93.7544 13.9162 93.8041 13.9062L94.0428 14.9602C93.9632 14.9901 93.8522 15.0199 93.7097 15.0497C93.5671 15.0829 93.3865 15.0994 93.1678 15.0994C92.8363 15.0994 92.5115 15.0282 92.1933 14.8857C91.8785 14.7431 91.6166 14.526 91.4078 14.2344C91.2023 13.9427 91.0996 13.5748 91.0996 13.1307V5.53409ZM100.801 9.07386L99.7469 9.37216C99.6806 9.1965 99.5828 9.0258 99.4535 8.86009C99.3276 8.69105 99.1552 8.55185 98.9365 8.44247C98.7177 8.3331 98.4377 8.27841 98.0963 8.27841C97.629 8.27841 97.2395 8.38613 96.928 8.60156C96.6197 8.81368 96.4656 9.08381 96.4656 9.41193C96.4656 9.7036 96.5717 9.93395 96.7838 10.103C96.9959 10.272 97.3274 10.4129 97.7781 10.5256L98.9116 10.804C99.5944 10.9697 100.103 11.2232 100.438 11.5646C100.773 11.9027 100.94 12.3385 100.94 12.8722C100.94 13.3097 100.814 13.7008 100.562 14.0455C100.314 14.3902 99.9656 14.6619 99.5182 14.8608C99.0707 15.0597 98.5504 15.1591 97.9571 15.1591C97.1782 15.1591 96.5336 14.9901 96.0231 14.652C95.5127 14.3139 95.1896 13.8201 95.0537 13.1705L96.1673 12.892C96.2734 13.303 96.4739 13.6113 96.7689 13.8168C97.0672 14.0223 97.4566 14.125 97.9372 14.125C98.4841 14.125 98.9183 14.009 99.2398 13.777C99.5646 13.5417 99.727 13.2599 99.727 12.9318C99.727 12.6667 99.6342 12.4446 99.4486 12.2656C99.263 12.0833 98.9779 11.9474 98.5935 11.858L97.3207 11.5597C96.6214 11.3939 96.1077 11.1371 95.7795 10.7891C95.4547 10.4377 95.2923 9.99858 95.2923 9.47159C95.2923 9.04072 95.4133 8.65956 95.6552 8.32812C95.9005 7.99669 96.2336 7.73651 96.6545 7.54758C97.0788 7.35866 97.5594 7.2642 98.0963 7.2642C98.852 7.2642 99.4453 7.42992 99.8761 7.76136C100.31 8.0928 100.619 8.5303 100.801 9.07386Z" fill="#00AFFF"/>
</svg>
